# xmcd
#
# Track frame offsets: 
#        150
#        21045
#        40250
#        58830
#        89102
#        132555
#        154837
#        177940
#        201820
#        230687
#
# Disc length: 3178 seconds
#
# Revision: 0
# Processed by: cddbd v1.5.2PL0 Copyright (c) Steve Scherf et al.
# Submitted via: ExactAudioCopy v1.0b3
#
DISCID=8e0c680a
DTITLE=Chris Duarte Group - Texas Sugar Strat Magik
DYEAR=1999
DGENRE=Blues
TTITLE0=My Way Down
TTITLE1=Letter To My Girlfriend
TTITLE2=C-Butt Rock
TTITLE3=Just Kissed My Baby
TTITLE4=Shiloh
TTITLE5=Scrawl
TTITLE6=What Can I Do?
TTITLE7=Big-Legged Woman
TTITLE8=Borrowed Love
TTITLE9=data
EXTD=
EXTT0=
EXTT1=
EXTT2=
EXTT3=
EXTT4=
EXTT5=
EXTT6=
EXTT7=
EXTT8=
EXTT9=
PLAYORDER=
